<?xml version="1.0" encoding="UTF-8"?> <svg xmlns="http://www.w3.org/2000/svg" xmlns:xlink="http://www.w3.org/1999/xlink" width="147" height="33"> <defs> <path id="a" d="M15.768 24.511V.805H.68V24.51z"></path> </defs> <g fill="none" fill-rule="evenodd"> <path d="M45.927 11.713c-1.388 0-2.96.71-3.866 5.044-1.007 4.82 1.002 5.127 1.976 5.127.886 0 2.772-.486 3.71-5.1.658-3.23.135-5.07-1.82-5.07m6.896 5.07c-1.269 7.292-5.775 8.224-9.589 8.224-3.765 0-7.233-2.613-6.252-8.262.767-4.414 3.368-8.5 9.695-8.187 4.412.218 7.007 3.263 6.146 8.225" fill="#006648" fill-rule="nonzero"></path> <path d="M62.43 24.383l-.236.237c-.945.18-2.055.327-2.657.327-2.23 0-5.501-.339-4.118-6.006.937-3.83 1.608-6.695 1.608-6.695l-2.066.06-.178-.237.857-3.006.207-.148h1.948l.857-3.837.205-.207c2.216-.505 2.806-.655 4.844-1.25l.176.179-1.3 5.175 3.013-.06.117.208c-.412 1.25-.531 1.578-.914 2.975l-.235.208-2.717-.06s-.552 2.31-1.325 5.523c-.834 3.473-.395 3.298.44 3.629.714.284 1.65-.08 2.182-.258l.179.15-.886 3.093z" fill="#006648"></path> <path d="M70.723 21.41c1.398.168 2.923-.298 3.955-1.162 1.18-1.01 2.244-3.092 2.244-5.353 0-2.5-1.594-2.796-2.184-2.796-.855 0-1.507.446-2.127.862l-1.888 8.449zm2.391-11.393c.769-.535 2.038-1.428 3.956-1.428 2.953 0 4.93 2.23 4.93 6.008 0 2.142-.737 4.67-2.273 6.544-2.923 3.6-6.613 3.569-9.743 3.569l-1.68 7.109-.207.148c-.68 0-1.33-.027-2.008-.027-1.005 0-1.89.058-2.982.089l-.147-.21s1.039-3.152 2.334-8.573c1.36-5.687 2.63-12.35 2.741-13.708l.207-.206 5.049-.831.176.207-.353 1.309z" fill="#006648" fill-rule="nonzero"></path> <path d="M85.87 22.33c1.673.08 4.134.03 6.053-1.278 2.185-1.52 3.22-4.165 3.22-6.07 0-2.705-1.626-3.747-3.516-3.747-1.505 0-2.567.655-3.513 1.25 0 0-2.06 9.115-2.243 9.846zm-3.601 2.171c.196-.902 1.47-6.186 2.769-12.13 1.114-5.097 1.89-8.28 2.162-10.655l.235-.208 3.219-.564.147.21-.826 3.3-1.36 5.71c1.242-.684 2.422-1.339 4.312-1.339 2.922 0 5.373 1.994 5.373 5.743 0 1.516-.472 4.371-2.45 6.662-2.657 3.063-5.934 3.271-9.743 3.421h-1.624l-2.066.03-.148-.18zm29.677-13.087c-.444 0-.885-.029-1.33-.029-.974 0-2.893.059-4.636 1.248-3.1 2.14-3.157 5.98-3.157 6.128 0 1.428.768 3.717 3.453 3.717.796 0 2.116-.189 3.543-1.458l2.127-9.606zm2.183 3.776c-1.033 4.581-1.238 5.712-1.828 9.252l-.208.207-2.775.06-.149-.206.207-1.19c-.501.415-1.8 1.516-4.311 1.516-3.01 0-5.46-2.142-5.46-5.86 0-2.348 1.12-4.907 2.36-6.395 2.746-3.242 6.555-3.421 9.271-3.421l4.074.029.147.238-1.328 5.77z" fill="#52AE30" fill-rule="nonzero"></path> <path d="M128.751 24.472l-.237.177-3.01.091-.12-.209c.434-2.003 2.253-8.71 2.274-10.798.02-1.784-1.091-2.38-2.48-2.38-1.829 0-3.04.924-3.926 1.578-1.094 4.998-1.447 6.575-2.393 11.541l-.205.177-3.012.091-.147-.209s.895-3.64 1.703-7.425c.636-2.964 1.156-5.407 1.397-7.445l.206-.21c1.388-.177 1.714-.237 3.129-.535l.148.207-.413 1.518c1.152-.774 2.629-1.813 5.078-1.813.974 0 4.163.265 4.163 3.866 0 2.151-1.866 9.677-2.155 11.778" fill="#52AE30"></path> <g transform="translate(131.055 .192)"> <mask id="b" fill="#fff"> <use xlink:href="#a"></use> </mask> <path d="M8.977 15.41l4.577 8.774-.179.237-3.276.09-.238-.18c-.762-2.088-4.103-8.653-4.103-8.653-.855 3.777-1.033 4.668-1.771 8.595l-.208.178-2.98.06-.118-.18s1.575-6.594 2.939-12.699c.636-2.854 1.626-7.375 2.02-10.115l.208-.178L9.065.805l.177.209C8.648 3.068 5.848 15.26 5.848 15.26c2.116-1.868 5.638-5.592 6.11-6.098l.325-.179h3.396l.089.268c-.839.669-2.393 2.084-2.953 2.588l-3.838 3.57z" fill="#52AE30" mask="url(#b)"></path> </g> <path d="M0 15.627C0 7.52 6.521.945 14.566.937v5.307c-5.136.01-9.296 4.208-9.296 9.383 0 5.182 4.17 9.383 9.312 9.383 5.113 0 9.314-4.163 9.314-9.418l5.27.004c0 8.145-6.53 14.723-14.584 14.723C6.53 30.319 0 23.74 0 15.627" fill="#006648"></path> <path d="M8.15 15.627c0-3.599 2.896-6.517 6.467-6.517 3.574 0 6.47 2.918 6.47 6.517 0 3.6-2.896 6.515-6.469 6.515-3.572 0-6.468-2.916-6.468-6.515" fill="#52AE30"></path> <path d="M19.104 7.374c0-2.062 1.661-3.736 3.708-3.736s3.706 1.674 3.706 3.736c0 2.061-1.66 3.733-3.706 3.733-2.047 0-3.708-1.672-3.708-3.733" fill="#00674A"></path> </g> </svg> 